<svg width="34" height="35" viewBox="0 0 34 35" fill="none" xmlns="http://www.w3.org/2000/svg">
<path d="M31.808 12.831C31.2455 12.1905 30.5761 11.6828 29.8388 11.3373C29.1015 10.9919 28.3108 10.8155 27.5128 10.8184C27.2942 10.8184 27.0663 10.8227 26.8356 10.8441C26.6491 4.82853 22.2641 5.4117e-05 16.9008 5.4117e-05C14.7138 -0.00765689 12.5869 0.808878 10.8558 2.32077C9.23413 3.7337 8.03327 5.67402 7.41436 7.88132C5.35025 8.23279 3.46633 9.41119 2.10557 11.202C0.744811 12.9928 -0.00228981 15.2769 0.000277078 17.6385V17.657C0.000277078 17.6618 0.000277048 17.6713 0.000691927 17.69C0.000218467 17.6945 -1.23995e-05 17.699 5.12986e-07 17.7036C0.00258449 19.807 0.743152 21.8232 2.05898 23.3092C3.3748 24.7951 5.15823 25.6293 7.01739 25.6284H16.3871V29.202C15.3499 29.3954 14.5386 30.3222 14.3923 31.5739H7.71715C7.60712 31.5739 7.50159 31.6234 7.42379 31.7114C7.34598 31.7994 7.30227 31.9188 7.30227 32.0433C7.30227 32.1678 7.34598 32.2872 7.42379 32.3752C7.50159 32.4632 7.60712 32.5127 7.71715 32.5127H14.4189C14.5326 33.1326 14.8317 33.6892 15.2658 34.0888C15.6999 34.4884 16.2424 34.7066 16.802 34.7066C17.3616 34.7066 17.9042 34.4884 18.3382 34.0888C18.7723 33.6892 19.0714 33.1326 19.1851 32.5127H25.8869C25.9969 32.5127 26.1024 32.4632 26.1802 32.3752C26.2581 32.2872 26.3018 32.1678 26.3018 32.0433C26.3018 31.9188 26.2581 31.7994 26.1802 31.7114C26.1024 31.6234 25.9969 31.5739 25.8869 31.5739H19.2118C19.1382 30.994 18.9064 30.4546 18.5488 30.0309C18.1912 29.6073 17.7255 29.3205 17.2169 29.2107V25.6284H26.5866C28.4457 25.6292 30.2291 24.795 31.5449 23.3091C32.8606 21.8231 33.6012 19.807 33.6038 17.7036C33.6038 17.6596 33.5977 17.6158 33.5858 17.5739C33.5616 15.7913 32.9238 14.0898 31.808 12.831ZM18.4058 31.9187C18.4058 32.2776 18.3117 32.6284 18.1355 32.9268C17.9593 33.2252 17.7088 33.4577 17.4158 33.5951C17.1227 33.7324 16.8002 33.7683 16.4891 33.6983C16.178 33.6283 15.8923 33.4555 15.668 33.2017C15.4437 32.948 15.2909 32.6247 15.2291 32.2727C15.1672 31.9207 15.1989 31.5559 15.3203 31.2243C15.4417 30.8928 15.6473 30.6094 15.911 30.41C16.1747 30.2106 16.4848 30.1042 16.802 30.1042C17.2272 30.1048 17.6349 30.2961 17.9355 30.6363C18.2362 30.9764 18.4053 31.4376 18.4058 31.9187ZM26.5866 24.6896H7.01739C5.38308 24.6907 3.81487 23.9597 2.65548 22.6565C1.49609 21.3534 0.839824 19.5839 0.830103 17.7349C0.830794 17.7229 0.831071 17.7179 0.831002 17.7058C0.831002 17.6894 0.830379 17.6722 0.82955 17.6568C0.82955 17.6545 0.82955 17.649 0.82955 17.649C0.825641 15.4629 1.53181 13.3515 2.81382 11.716C4.09584 10.0805 5.86432 9.03488 7.78312 8.778C7.86479 8.76667 7.94167 8.72828 8.00412 8.66767C8.06657 8.60705 8.11179 8.52691 8.1341 8.43731C8.67539 6.30323 9.80622 4.42121 11.3611 3.06669C12.9475 1.68101 14.8966 0.932545 16.9008 0.939447C21.9247 0.939447 26.012 5.56178 26.012 11.2439C26.012 11.2858 26.012 11.3271 26.0111 11.3691C26.0096 11.4394 26.0221 11.5093 26.0477 11.5734C26.0733 11.6376 26.1113 11.6944 26.1589 11.7397C26.2065 11.7849 26.2625 11.8175 26.3228 11.835C26.383 11.8525 26.446 11.8544 26.507 11.8406C27.2699 11.678 28.0551 11.7079 28.8066 11.9282C29.5582 12.1486 30.2574 12.5539 30.8544 13.1153C31.4515 13.6767 31.9316 14.3803 32.2605 15.1759C32.5895 15.9715 32.7591 16.8395 32.7573 17.7178C32.7572 17.7566 32.7625 17.7952 32.773 17.8321C32.7409 19.664 32.0749 21.4085 30.9181 22.6908C29.7614 23.9731 28.2061 24.6908 26.5866 24.6896Z" fill="white"/>
<path d="M24.5452 18.2689V11.4772C24.5452 11.4625 24.5411 11.448 24.5399 11.4336C24.5405 11.4228 24.5399 11.4121 24.5399 11.4012C24.5389 11.3058 24.5123 11.213 24.4636 11.1351C24.415 11.0572 24.3465 10.9979 24.2673 10.9651L16.4626 7.71942C16.3701 7.68101 16.2686 7.68101 16.1761 7.71942L8.37142 10.9651C8.29233 10.9979 8.22396 11.0573 8.1754 11.1352C8.12685 11.2131 8.10041 11.3059 8.09961 11.4012C8.10047 11.4973 8.12693 11.5909 8.17553 11.6697C8.22413 11.7485 8.29262 11.8089 8.37205 11.843L10.6468 12.8412V19.2656C10.6452 19.3605 10.6695 19.4537 10.7164 19.5324C10.7633 19.6111 10.8305 19.6715 10.9088 19.7054C14.398 21.1786 18.2398 21.1786 21.7291 19.7054C21.8069 19.6713 21.8735 19.6106 21.9197 19.5319C21.9659 19.4531 21.9893 19.3601 21.9868 19.2656V12.8412L23.7155 12.092V18.2769C23.4061 18.3918 23.1432 18.628 22.9743 18.943C22.8054 19.2579 22.7415 19.6308 22.7943 19.9944C22.8471 20.3579 23.013 20.6881 23.262 20.9254C23.5111 21.1627 23.827 21.2914 24.1526 21.2883C24.4782 21.2853 24.7921 21.1506 25.0377 20.9087C25.2832 20.6667 25.4442 20.3334 25.4916 19.9689C25.539 19.6044 25.4697 19.2328 25.2961 18.9211C25.1226 18.6094 24.8563 18.3781 24.5452 18.2691V18.2689ZM11.4766 18.9362V17.067C14.6194 18.2451 18.0142 18.2451 21.1571 17.067V18.9362C18.0244 20.1832 14.6093 20.1832 11.4766 18.9362ZM21.1571 16.0764C18.0244 17.3236 14.6093 17.3236 11.4766 16.0764V13.2069L16.1766 15.28C16.2232 15.3011 16.2729 15.312 16.323 15.312C16.3706 15.312 16.4176 15.3011 16.4613 15.28L21.1571 13.2065V16.0764ZM21.4729 12.0695C21.4533 12.0762 21.4343 12.0846 21.4159 12.0946L16.319 14.3388L11.2221 12.0945C11.2037 12.0845 11.1847 12.0761 11.1651 12.0694L9.68679 11.4184L16.319 8.66015L22.9512 11.4182L21.4729 12.0695ZM24.1335 20.3581C24.027 20.3581 23.9228 20.3224 23.8341 20.2554C23.7455 20.1884 23.6764 20.0932 23.6356 19.9818C23.5948 19.8704 23.5841 19.7478 23.6049 19.6295C23.6257 19.5112 23.677 19.4026 23.7524 19.3173C23.8277 19.232 23.9238 19.1739 24.0283 19.1504C24.1329 19.1269 24.2412 19.1389 24.3397 19.1851C24.4382 19.2312 24.5224 19.3094 24.5816 19.4096C24.6408 19.5099 24.6724 19.6278 24.6724 19.7484C24.6722 19.91 24.6154 20.0649 24.5143 20.1791C24.4133 20.2934 24.2764 20.3576 24.1335 20.3577V20.3581Z" fill="white"/>
</svg>
