<svg width="33" height="33" viewBox="0 0 33 33" fill="none" xmlns="http://www.w3.org/2000/svg">
<path d="M11.9473 7.96554H9.10251V5.12071C9.10251 4.80607 8.84761 4.55174 8.53354 4.55174C8.21947 4.55174 7.96457 4.80607 7.96457 5.12071V7.96554H5.11975C4.80568 7.96554 4.55078 8.21986 4.55078 8.5345C4.55078 8.84914 4.80568 9.10347 5.11975 9.10347H7.96457V11.9483C7.96457 12.2629 8.21947 12.5173 8.53354 12.5173C8.84761 12.5173 9.10251 12.2629 9.10251 11.9483V9.10347H11.9473C12.2614 9.10347 12.5163 8.84914 12.5163 8.5345C12.5163 8.21986 12.2614 7.96554 11.9473 7.96554Z" fill="white"/>
<path d="M27.879 7.96555H21.0514C20.7373 7.96555 20.4824 8.21987 20.4824 8.53451C20.4824 8.84915 20.7373 9.10348 21.0514 9.10348H27.879C28.193 9.10348 28.4479 8.84915 28.4479 8.53451C28.4479 8.21987 28.193 7.96555 27.879 7.96555Z" fill="white"/>
<path d="M17.069 0H15.931H0V15.931V17.069V33H15.931H17.069H33V17.069V15.931V0H17.069ZM1.13793 1.13793H15.931V15.931H1.13793V1.13793ZM1.13793 31.8621V17.069H15.931V31.8621H1.13793ZM31.8621 31.8621H17.069V17.069H31.8621V31.8621ZM17.069 15.931V1.13793H31.8621V15.931H17.069Z" fill="white"/>
<path d="M21.0514 26.7414H27.879C28.193 26.7414 28.4479 26.4871 28.4479 26.1724C28.4479 25.8578 28.193 25.6035 27.879 25.6035H21.0514C20.7373 25.6035 20.4824 25.8578 20.4824 26.1724C20.4824 26.4871 20.7373 26.7414 21.0514 26.7414Z" fill="white"/>
<path d="M21.0514 23.3276H27.879C28.193 23.3276 28.4479 23.0733 28.4479 22.7586C28.4479 22.444 28.193 22.1897 27.879 22.1897H21.0514C20.7373 22.1897 20.4824 22.444 20.4824 22.7586C20.4824 23.0733 20.7373 23.3276 21.0514 23.3276Z" fill="white"/>
<path d="M11.7821 21.2185C11.5596 20.996 11.2001 20.996 10.9776 21.2185L8.53503 23.661L6.09246 21.2185C5.86999 20.996 5.51041 20.996 5.28794 21.2185C5.06548 21.4409 5.06548 21.8005 5.28794 22.023L7.73051 24.4655L5.28794 26.9081C5.06548 27.1306 5.06548 27.4902 5.28794 27.7126C5.39889 27.8236 5.54455 27.8793 5.6902 27.8793C5.83586 27.8793 5.98151 27.8236 6.09246 27.7126L8.53503 25.2701L10.9776 27.7126C11.0885 27.8236 11.2342 27.8793 11.3799 27.8793C11.5255 27.8793 11.6712 27.8236 11.7821 27.7126C12.0046 27.4902 12.0046 27.1306 11.7821 26.9081L9.33955 24.4655L11.7821 22.023C12.0046 21.8005 12.0046 21.4409 11.7821 21.2185Z" fill="white"/>
</svg>
