<svg width="33" height="33" viewBox="0 0 33 33" fill="none" xmlns="http://www.w3.org/2000/svg">
<g clip-path="url(#clip0)">
<path d="M32.45 0H0.55C0.246265 0 0 0.246265 0 0.55V2.75C0 3.05374 0.246265 3.3 0.55 3.3H1.1V20.35H2.2V3.3H30.8V20.9H27.5V22H31.35C31.6537 22 31.9 21.7537 31.9 21.45V3.3H32.45C32.7537 3.3 33 3.05374 33 2.75V0.55C33 0.246265 32.7537 0 32.45 0ZM31.9 2.2H1.1V1.1H31.9V2.2Z" fill="white"/>
<path d="M17.0508 20.9H21.4508V22H17.0508V20.9Z" fill="white"/>
<path d="M17.0508 8.25H15.9508C15.0396 8.25 14.3008 8.98879 14.3008 9.9V13.75H15.4008V11.55H17.6008V13.75H18.7008V9.9C18.7008 8.98879 17.962 8.25 17.0508 8.25ZM15.4008 10.45V9.9C15.4008 9.59626 15.647 9.35 15.9508 9.35H17.0508C17.3545 9.35 17.6008 9.59626 17.6008 9.9V10.45H15.4008Z" fill="white"/>
<path d="M22.5508 8.25H20.3508C20.047 8.25 19.8008 8.49627 19.8008 8.8V13.2C19.8008 13.5037 20.047 13.75 20.3508 13.75H22.5508C23.2028 13.753 23.795 13.3697 24.0595 12.7738C24.324 12.1779 24.2113 11.4818 23.7719 11C24.2113 10.5182 24.324 9.82212 24.0595 9.2262C23.795 8.63027 23.2028 8.24705 22.5508 8.25ZM20.9008 9.35H22.5508C22.8545 9.35 23.1008 9.59627 23.1008 9.9C23.1008 10.2037 22.8545 10.45 22.5508 10.45H20.9008V9.35ZM22.5508 12.65H20.9008V11.55H22.5508C22.8545 11.55 23.1008 11.7963 23.1008 12.1C23.1008 12.4037 22.8545 12.65 22.5508 12.65Z" fill="white"/>
<path d="M26.9508 9.35H28.0508C28.3545 9.35 28.6008 9.59626 28.6008 9.9H29.7008C29.7008 8.98879 28.962 8.25 28.0508 8.25H26.9508C26.0396 8.25 25.3008 8.98879 25.3008 9.9V12.1C25.3008 13.0112 26.0396 13.75 26.9508 13.75H28.0508C28.962 13.75 29.7008 13.0112 29.7008 12.1H28.6008C28.6008 12.4037 28.3545 12.65 28.0508 12.65H26.9508C26.647 12.65 26.4008 12.4037 26.4008 12.1V9.9C26.4008 9.59626 26.647 9.35 26.9508 9.35Z" fill="white"/>
<path d="M32.45 29.7H24.8711C25.1456 29.3992 25.2987 29.0071 25.3 28.6H25.85C26.4575 28.6 26.95 28.1075 26.95 27.5V26.95C26.95 26.3425 26.4575 25.85 25.85 25.85H21.45C21.1463 25.85 20.9 26.0963 20.9 26.4V28.6C20.9013 29.0071 21.0544 29.3992 21.3289 29.7H17.05V24.519C17.0444 22.7847 15.8853 21.266 14.2135 20.8039L11 19.9297V19.1047C12.0331 18.3866 12.6492 17.2082 12.65 15.95V15.4C12.9537 15.4 13.2 15.1537 13.2 14.85V13.2C13.2 10.7699 11.2302 8.8 8.8 8.8C6.36985 8.8 4.4 10.7699 4.4 13.2V14.85C4.4 15.1537 4.64626 15.4 4.95 15.4V15.95C4.95081 17.2082 5.56687 18.3866 6.6 19.1047V19.9297L3.38459 20.8044C1.71392 21.2671 0.555371 22.7853 0.55 24.519V29.7C0.246265 29.7 0 29.9463 0 30.25V32.45C0 32.7537 0.246265 33 0.55 33H32.45C32.7537 33 33 32.7537 33 32.45V30.25C33 29.9463 32.7537 29.7 32.45 29.7ZM25.85 27.5H25.3V26.95H25.85V27.5ZM22 26.95H24.2V28.6C24.2 28.9037 23.9537 29.15 23.65 29.15H22.55C22.2463 29.15 22 28.9037 22 28.6V26.95ZM15.95 24.519V29.7H14.3V24.75H13.2V29.7H10.1277L10.4242 28.7649C10.4476 28.6916 10.4551 28.6142 10.4468 28.538L9.91423 23.7496L10.2899 22.9982L11.7238 22.5202C11.886 22.4659 12.0135 22.3395 12.0691 22.1778C12.1247 22.0161 12.1019 21.8378 12.0076 21.6952L11.7216 21.2663L13.9216 21.8652C15.1161 22.1952 15.9452 23.2797 15.95 24.519ZM6.90696 21.7057L7.05601 21.4825L7.50906 21.7024L7.42124 21.8778L6.90696 21.7057ZM10.544 21.4825L10.693 21.7057L10.1788 21.8773L10.0909 21.7019L10.544 21.4825ZM9.01001 22L9.28501 22.55L9.01001 23.1H8.58999L8.31499 22.55L8.58999 22H9.01001ZM8.64666 29.7L8.26155 28.5407L8.74495 24.2H8.86042L9.34329 28.5449L8.97375 29.7H8.64666ZM5.5 13.2C5.5 11.3776 6.97759 9.9 8.8 9.9C10.6224 9.9 12.1 11.3776 12.1 13.2V14.3H11.738C11.2334 14.3 10.7935 13.9565 10.671 13.4667L10.4336 12.5163C10.3821 12.3108 10.2166 12.1529 10.009 12.111C9.97305 12.1035 9.93652 12.0997 9.9 12.1C9.72678 12.1 9.56377 12.1816 9.46011 12.3199L9.13005 12.7601C8.40093 13.7272 7.26118 14.297 6.05 14.3H5.5V13.2ZM6.05 15.95V15.4C7.4062 15.397 8.70225 14.8409 9.6387 13.8601C9.90698 14.7093 10.6624 15.3119 11.55 15.3847V15.95C11.55 17.4687 10.3187 18.7 8.8 18.7C7.28132 18.7 6.05 17.4687 6.05 15.95ZM8.8 19.8C9.17275 19.7989 9.54336 19.7433 9.9 19.6351V20.35C9.90107 20.419 9.91531 20.4875 9.94189 20.5514L9.22351 20.9H8.37649L7.65811 20.5514C7.68469 20.4875 7.69893 20.419 7.7 20.35V19.6351C8.05664 19.7433 8.42725 19.7989 8.8 19.8ZM1.65 24.519C1.65403 23.2805 2.48198 22.1958 3.67571 21.8652L5.87839 21.2658L5.59238 21.6947C5.49812 21.8373 5.47529 22.0156 5.53088 22.1772C5.58647 22.3389 5.71404 22.4654 5.87625 22.5197L7.31006 22.9977L7.68577 23.7491L7.15322 28.5374C7.14436 28.6164 7.15295 28.6961 7.17793 28.7716L7.4865 29.7H4.4V24.75H3.3V29.7H1.65V24.519ZM31.9 31.9H1.1V30.8H31.9V31.9Z" fill="white"/>
<path d="M23.6504 24.2V24.75H24.7504V24.2H25.8504C26.4579 24.2 26.9504 23.7075 26.9504 23.1V22.55H25.8504V23.1H24.7504C24.1429 23.1 23.6504 23.5925 23.6504 24.2Z" fill="white"/>
<path d="M21.4492 23.65H22.5492V23.1H23.6492C24.2567 23.1 24.7492 22.6075 24.7492 22V21.45H23.6492V22H22.5492C21.9417 22 21.4492 22.4925 21.4492 23.1V23.65Z" fill="white"/>
<path d="M21.4492 15.4H22.5492V16.5H21.4492V15.4Z" fill="white"/>
<path d="M23.6504 15.4H24.7504V16.5H23.6504V15.4Z" fill="white"/>
<path d="M19.25 15.4H20.35V16.5H19.25V15.4Z" fill="white"/>
<path d="M4.40039 5.49998H5.50039V6.59998H4.40039V5.49998Z" fill="white"/>
<path d="M6.59961 5.49998H7.69961V6.59998H6.59961V5.49998Z" fill="white"/>
<path d="M8.80078 5.49998H9.90078V6.59998H8.80078V5.49998Z" fill="white"/>
<path d="M11 5.49998H12.1V6.59998H11V5.49998Z" fill="white"/>
</g>
<defs>
<clipPath id="clip0">
<rect width="33" height="33" fill="white"/>
</clipPath>
</defs>
</svg>
