<svg width="31" height="32" viewBox="0 0 31 32" fill="none" xmlns="http://www.w3.org/2000/svg">
<path d="M29.8665 22.9333H27.2V3.19995C27.2 2.61084 26.7222 2.1333 26.1331 2.1333H20.7998V1.06665C20.7998 0.477539 20.3223 0 19.7332 0H18.6665C18.0774 0 17.5999 0.477539 17.5999 1.06665V2.1333H13.8665V1.06665C13.8665 0.477539 13.3889 0 12.7998 0H11.7332C11.144 0 10.6665 0.477539 10.6665 1.06665V2.1333H5.86645C5.27734 2.1333 4.7998 2.61084 4.7998 3.19995V9.30396L1.82861 6.56909C1.38843 6.20117 0.742919 6.22021 0.325194 6.61328C-0.0898446 7.02393 -0.110108 7.68774 0.278808 8.12329L4.7998 13.1814V22.9333H2.13306C1.54419 22.9333 1.06641 23.4109 1.06641 24V25.0667C1.06641 25.6558 1.54419 26.1333 2.13306 26.1333H5.10547L3.49267 30.5686C3.37353 30.8955 3.42163 31.26 3.62109 31.5452C3.8208 31.8301 4.14673 32 4.49487 32H6.55981C7.00806 31.999 7.40796 31.719 7.56201 31.2981L9.43994 26.1333H14.3999V29.8667C14.3999 30.4558 14.8774 30.9333 15.4666 30.9333H16.5332C17.1223 30.9333 17.5999 30.4558 17.5999 29.8667V26.1333H22.5598L24.4377 31.2981C24.5918 31.719 24.9917 31.999 25.4399 32H27.5049C27.8528 32 28.179 31.8301 28.3784 31.5452C28.5781 31.26 28.626 30.8955 28.5071 30.5686L26.8943 26.1333H29.8665C30.4556 26.1333 30.9331 25.6558 30.9331 25.0667V24C30.9331 23.4109 30.4556 22.9333 29.8665 22.9333ZM13.4153 22.9333C12.9651 22.7861 10.1331 21.76 10.1331 19.2C10.1301 18.8198 10.0974 18.4402 10.0352 18.0652C10.2705 18.1082 10.5093 18.1309 10.7485 18.1333C11.0212 18.1335 11.2935 18.1057 11.5603 18.05C11.9639 17.9924 12.3479 17.8394 12.6804 17.6033C12.8315 17.4788 12.9021 17.2815 12.8647 17.0894C12.8271 16.8972 12.6875 16.7412 12.5007 16.6826C12.3542 16.6418 12.2136 16.5833 12.0815 16.5083C11.5813 16.2026 11.1753 15.7649 10.9082 15.2432V15.2378C11.5271 15.4871 12.1143 15.8093 12.657 16.1978C12.9512 16.4143 13.2292 16.6521 13.4883 16.9094C15.1487 18.5696 17.5823 19.4529 21.123 19.6897C21.1895 19.7183 21.261 19.7332 21.3333 19.7334C21.3694 19.73 21.4053 19.7227 21.4399 19.7114C22.1582 19.752 22.8728 19.7649 23.5608 19.7649C24.1514 19.7649 24.7231 19.7551 25.2634 19.7466C25.5625 19.7419 25.8499 19.7375 26.1321 19.7349V22.9333H13.4153ZM7.86328 14.1548C8.06348 13.9546 8.33472 13.842 8.61767 13.842C8.90063 13.842 9.17212 13.9546 9.37207 14.1548C9.54272 14.3779 9.65308 14.6416 9.69214 14.9199C9.71191 14.9995 9.73169 15.0801 9.75293 15.1572C9.80322 15.3542 9.87378 15.5457 9.96362 15.728C10.2222 16.2368 10.5813 16.688 11.019 17.0544C10.6199 17.0889 10.218 17.0464 9.83496 16.929C9.08472 16.675 8.4082 16.2405 7.86548 15.6636C7.66504 15.4636 7.55225 15.1924 7.55176 14.9094C7.55151 14.6265 7.66357 14.355 7.86328 14.1548ZM26.1331 18.6704C25.8462 18.6731 25.5525 18.6772 25.2473 18.6821C24.2051 18.6992 23.042 18.7136 21.8665 18.6628V14.3574C22.9817 14.1953 23.9641 13.5381 24.5396 12.5691C25.21 12.4565 25.7561 12.3796 26.1331 12.3323V18.6704ZM21.8665 13.28V11.4209L22.7769 10.5105C22.979 10.301 22.9761 9.96851 22.7705 9.7627C22.5647 9.55713 22.2319 9.5542 22.0227 9.75635L21.3333 10.4458L20.6436 9.75635C20.4343 9.5542 20.1016 9.55713 19.896 9.7627C19.6902 9.96851 19.6873 10.301 19.8894 10.5105L20.7998 11.4209V13.28C19.4585 13.0061 18.5425 11.7612 18.6799 10.3992C18.8176 9.03711 19.9641 8.00049 21.3333 8.00049C22.7021 8.00049 23.8486 9.03711 23.9863 10.3992C24.124 11.7612 23.2078 13.0061 21.8665 13.28ZM19.2869 13.7861C19.7429 14.0857 20.2595 14.2808 20.7998 14.3574V18.593C17.7512 18.3376 15.6499 17.5627 14.2437 16.1558C14.1443 16.0571 14.0376 15.9631 13.9321 15.8682C15.6501 15.0134 17.4426 14.3162 19.2869 13.7856V13.7861ZM18.6665 1.06665H19.7332V2.1333H18.6665V1.06665ZM11.7332 1.06665H12.7998V2.1333H11.7332V1.06665ZM5.86645 3.19995H26.1331V11.2571C25.8574 11.2908 25.4702 11.3423 24.9907 11.417C25.3401 9.72754 24.4858 8.01855 22.925 7.28369C21.364 6.54883 19.5027 6.97925 18.4229 8.32495C17.343 9.67065 17.3262 11.5808 18.3816 12.9456C16.5249 13.5125 14.7249 14.2512 13.0051 15.1526C12.229 14.6372 11.384 14.2339 10.4954 13.9541C10.4075 13.7488 10.2825 13.5613 10.1262 13.4016C9.7168 12.9927 9.1582 12.7688 8.57959 12.782L5.86645 10.2859V3.19995ZM0.677245 7.76538L1.11084 7.35791L7.40942 13.1558C7.302 13.2278 7.20142 13.3098 7.10913 13.4006C7.08569 13.4241 7.06982 13.4539 7.04785 13.4758C6.99097 13.5215 6.94433 13.5789 6.91089 13.6438C6.86963 13.697 6.83032 13.7546 6.79492 13.8132L5.71069 12.5994L1.07495 7.41016L0.677245 7.76538ZM5.86645 14.375L6.5022 15.0869C6.53906 15.5896 6.75439 16.0623 7.10913 16.4202C7.62109 16.9456 8.21973 17.3787 8.87866 17.7002C8.99634 18.1917 9.05933 18.6948 9.06641 19.2C9.08203 20.7053 9.84497 22.1045 11.1018 22.9333H5.86645V14.375ZM6.55981 30.9333H4.49487L6.23975 26.1333H8.30493L6.55981 30.9333ZM16.5332 29.8667H15.4666V26.1333H16.5332V29.8667ZM27.5044 30.9333H25.4399L23.6948 26.1333H25.7598L27.5044 30.9333ZM26.1331 25.0667H2.13306V24H29.8665V25.0667H26.1331Z" fill="white"/>
<path d="M10.1335 5.8667C10.1335 4.98291 9.41724 4.2666 8.53369 4.2666C7.6499 4.2666 6.93359 4.98291 6.93359 5.8667C6.93359 6.75024 7.6499 7.46655 8.53369 7.46655C9.41724 7.46655 10.1335 6.75024 10.1335 5.8667ZM8.00024 5.8667C8.00024 5.57202 8.23901 5.33325 8.53369 5.33325C8.82812 5.33325 9.06689 5.57202 9.06689 5.8667C9.06689 6.16113 8.82812 6.3999 8.53369 6.3999C8.23901 6.3999 8.00024 6.16113 8.00024 5.8667Z" fill="white"/>
</svg>
