<svg width="29" height="32" viewBox="0 0 29 32" fill="none" xmlns="http://www.w3.org/2000/svg">
<path d="M29 7.04861V0.906323C29 0.617984 28.8585 0.343056 28.6295 0.175417C28.3937 0.00777782 28.0906 -0.0458666 27.8144 0.0413056L9.43089 5.85503C9.05366 5.97573 8.79768 6.32441 8.79768 6.72004V12.869V12.8757V24.6306C7.83438 23.9667 6.60163 23.6046 5.30825 23.6046C3.94077 23.6046 2.64065 24.0137 1.65041 24.7513C0.586063 25.5493 0 26.6288 0 27.8023C0 28.9758 0.586063 30.0554 1.65041 30.8533C2.64065 31.591 3.93403 32 5.30825 32C6.68246 32 7.97584 31.591 8.96609 30.8533C10.0304 30.0554 10.6165 28.9758 10.6165 27.8023V13.5329L27.1812 8.28914V18.7901C26.2179 18.1262 24.9851 17.7641 23.6918 17.7641C22.3243 17.7641 21.0242 18.1731 20.0339 18.9107C18.9696 19.7087 18.3835 20.7883 18.3835 21.9618C18.3835 23.1353 18.9696 24.2148 20.0339 25.0128C21.0242 25.7504 22.3175 26.1595 23.6918 26.1595C25.066 26.1595 26.3594 25.7504 27.3496 25.0128C28.4139 24.2148 29 23.1353 29 21.9618V7.05532C29 7.04861 29 7.04861 29 7.04861ZM5.30825 30.1895C3.41533 30.1895 1.81882 29.0965 1.81882 27.8023C1.81882 26.5081 3.41533 25.4151 5.30825 25.4151C7.20116 25.4151 8.79768 26.5081 8.79768 27.8023C8.79768 29.1032 7.20116 30.1895 5.30825 30.1895ZM10.6165 11.6285V7.37719L27.1812 2.14015V6.39147L10.6165 11.6285ZM23.6985 24.349C21.8056 24.349 20.2091 23.256 20.2091 21.9618C20.2091 20.6676 21.8056 19.5746 23.6985 19.5746C25.5914 19.5746 27.1879 20.6676 27.1879 21.9618C27.1812 23.256 25.5847 24.349 23.6985 24.349Z" fill="white"/>
</svg>
