<svg width="22" height="33" viewBox="0 0 22 33" fill="none" xmlns="http://www.w3.org/2000/svg">
<path d="M1.01038 23.4663C1.00381 23.4992 1.00381 23.5321 1.00381 23.5649C1.00381 23.6044 1.00381 23.6701 0.99724 23.6964C0.727796 24.5967 0.951237 25.3393 1.67413 25.9833C1.95672 26.2265 2.07501 26.5814 2.01587 26.956C1.94358 27.3634 1.67413 27.6986 1.2864 27.8497C1.27983 27.8497 1.27325 27.8563 1.26668 27.8563C0.570073 28.152 0.215196 28.6384 0.169194 29.335C0.15605 29.519 0.123191 29.7227 0.0969039 29.933C0.0640449 30.1564 0.0311858 30.3864 0.0114704 30.6099C-0.0345322 31.0633 0.0574732 31.4379 0.294058 31.7205C0.530642 32.0031 0.892091 32.1608 1.35869 32.1871C1.37183 32.1871 1.38498 32.1871 1.39812 32.1871H20.0423C20.0686 32.1871 20.0949 32.1871 20.1277 32.1871C20.1672 32.1871 20.2 32.1871 20.2395 32.1871C20.4826 32.1871 20.7915 32.1543 21.0872 31.9177C21.475 31.6285 21.659 31.1685 21.5932 30.6428C21.5604 30.3733 21.521 30.1104 21.475 29.8476C21.4355 29.5847 21.3961 29.3415 21.3632 29.0918C21.3632 29.0787 21.3567 29.0589 21.3567 29.0458C21.2055 28.3098 20.7323 28.0206 20.3512 27.9023C19.9503 27.7906 19.6546 27.4423 19.5691 27.0085C19.5297 26.7851 19.4903 26.2134 20.0686 25.773C20.5352 25.4576 20.7455 24.9844 20.6929 24.4193C20.6601 23.9789 20.5943 23.5386 20.5286 23.118C20.4169 22.3557 19.9174 21.9154 19.142 21.9154H2.7782C1.58213 21.9483 1.18125 22.29 1.01038 23.4663ZM19.2143 23.2494C19.2208 23.2691 19.2274 23.302 19.234 23.3414C19.2997 23.7554 19.3588 24.1498 19.3917 24.5572C19.4048 24.6689 19.3851 24.6821 19.326 24.7215C19.3128 24.7281 19.3063 24.7346 19.2931 24.7412C18.4848 25.3524 18.1036 26.2987 18.2876 27.2648C18.4585 28.1914 19.1157 28.9209 19.9832 29.1706C20.0292 29.1837 20.0489 29.1903 20.0752 29.2955C20.108 29.5518 20.1474 29.8146 20.1869 30.0644C20.2263 30.3272 20.2657 30.5704 20.2986 30.8201C20.3052 30.853 20.2986 30.8793 20.2986 30.8924C20.2789 30.8924 20.2132 30.8924 20.154 30.8924C20.1146 30.8924 20.0817 30.8924 20.0423 30.8924H1.41783C1.35869 30.8858 1.32583 30.8793 1.29954 30.8727C1.29954 30.8464 1.29954 30.807 1.30611 30.7413C1.30611 30.7347 1.30611 30.7281 1.30611 30.7215C1.31926 30.5375 1.35212 30.3338 1.3784 30.1235C1.41126 29.9001 1.44412 29.6701 1.46384 29.4269C1.47698 29.2495 1.49012 29.1706 1.77271 29.0523C2.58104 28.7303 3.15279 28.0271 3.29737 27.1728C3.43538 26.3513 3.15279 25.543 2.53504 25.0041C2.15388 24.6689 2.13416 24.4389 2.24588 24.0775C2.29845 23.9066 2.30503 23.7357 2.30503 23.6109C2.33131 23.4203 2.3576 23.3217 2.37732 23.2626C2.44303 23.256 2.56133 23.2428 2.78477 23.2428H19.142C19.1683 23.2494 19.1945 23.2494 19.2143 23.2494Z" fill="white"/>
<path d="M7.15451 27.7248H14.4295C14.7909 27.7248 15.0801 27.4356 15.0801 27.0742C15.0801 26.7127 14.7909 26.4236 14.4295 26.4236H7.15451C6.79307 26.4236 6.50391 26.7127 6.50391 27.0742C6.50391 27.4356 6.79964 27.7248 7.15451 27.7248Z" fill="white"/>
<path d="M2.90361 13.2998C2.86418 13.9898 2.85761 14.6798 2.85761 15.3436C2.85761 15.7773 2.85103 16.2242 2.83789 16.6711C2.83789 16.6777 2.83789 16.6842 2.83789 16.6908V18.7806C2.83789 19.6876 3.54764 20.3973 4.45455 20.3973H13.4908L17.493 20.463C18.3473 20.463 19.0111 19.8124 19.0111 18.9778V17.5583C19.0111 16.6251 18.5379 15.7708 17.7296 15.2647C17.723 15.2582 16.6847 14.6141 15.5149 13.5955C15.2454 13.3589 14.8314 13.3852 14.5948 13.6612C14.3582 13.9307 14.3845 14.3447 14.6605 14.5813C15.9289 15.6853 17.0461 16.3754 17.0461 16.3754C17.4667 16.6382 17.7099 17.072 17.7099 17.5649V18.9844C17.7099 19.1224 17.5916 19.1684 17.4996 19.1684L13.4973 19.1027H4.45455C4.26397 19.1027 4.13911 18.9778 4.13911 18.7872V16.704C4.15225 16.2505 4.15225 15.7971 4.15882 15.3567C4.16539 14.6798 4.16539 14.0424 4.20482 13.3721C4.27711 11.7488 4.45455 10.395 4.77 9.11354C5.06573 7.87804 5.44689 6.58339 6.24865 5.47276C7.03727 4.33584 7.77988 3.89553 8.81165 3.94153C10.1194 3.98096 11.0658 3.42893 11.631 2.30516C11.815 1.95028 12.1107 1.67426 12.5181 1.47711C12.5116 2.56803 13.011 3.50122 14.0034 4.25698C15.0811 5.0916 16.1523 5.93279 17.2235 6.7674C18.2948 7.60202 19.366 8.44321 20.4437 9.27783C20.6277 9.42241 20.7 9.53413 20.7066 9.58671C20.7132 9.63928 20.6737 9.75757 20.5357 9.93501L19.4842 11.1705C19.0439 11.6502 18.6825 11.716 18.1239 11.4137C18.1173 11.4137 18.1107 11.4071 18.1042 11.4071C17.7887 11.2494 17.4996 11.1048 17.2433 10.9339C17.2367 10.9274 17.2301 10.9274 17.2301 10.9208C16.5992 10.5265 15.85 10.4082 15.068 10.579C15.0614 10.579 15.0549 10.5856 15.0483 10.5856C14.3057 10.7762 13.6354 10.6185 12.9387 10.0927L12.4656 9.71157C12.183 9.48813 11.7755 9.53413 11.5521 9.81015C11.3287 10.0927 11.3747 10.5002 11.6507 10.7236L12.1304 11.1114C12.137 11.1179 12.137 11.1179 12.1436 11.1245C13.1556 11.8934 14.24 12.1366 15.3572 11.854C15.7975 11.762 16.1918 11.8145 16.5269 12.0248C16.8424 12.2351 17.1841 12.406 17.5127 12.5703C18.6102 13.1552 19.596 12.9778 20.4503 12.0446C20.4569 12.038 20.4634 12.0314 20.4634 12.0248L21.5281 10.7696C21.5346 10.7631 21.5346 10.7565 21.5412 10.7499C21.8961 10.2965 22.0472 9.86929 21.9881 9.42898C21.9355 8.99524 21.6858 8.61408 21.2323 8.25263C20.1546 7.41801 19.0834 6.57682 18.0122 5.7422C16.941 4.90759 15.8698 4.0664 14.7854 3.22521C13.9968 2.62717 13.7011 1.94371 13.8456 1.0828C13.8456 1.06966 13.8522 1.05652 13.8522 1.04994C13.9048 0.576774 13.6879 0.313902 13.5499 0.202182C13.3791 0.0576022 13.0636 -0.0869773 12.5641 0.064174C11.6112 0.353333 10.8883 0.918507 10.4743 1.71369C10.1326 2.39059 9.65284 2.6666 8.86423 2.64032C6.95841 2.55488 5.89378 3.70495 5.18402 4.71043C4.25083 5.99851 3.81052 7.50345 3.50164 8.79809C3.16648 10.165 2.9759 11.5977 2.90361 13.2998Z" fill="white"/>
</svg>
