<svg width="43" height="43" viewBox="0 0 43 43" fill="none" xmlns="http://www.w3.org/2000/svg">
<g clip-path="url(#clip0)">
<path d="M28.0249 0.433594H5.06055V42.9418H38.3586V10.7673L28.0249 0.433594ZM28.44 2.85231L35.9399 10.3522H28.44V2.85231ZM6.47749 41.5248V1.85053H27.0231V11.7691H36.9417V41.5248H6.47749Z" fill="black"/>
<path d="M12.146 12.4775H18.5222C18.914 12.4775 19.2307 12.1608 19.2307 11.769C19.2307 11.3772 18.914 11.0605 18.5222 11.0605H12.146C11.7542 11.0605 11.4375 11.3772 11.4375 11.769C11.4375 12.1608 11.7542 12.4775 12.146 12.4775Z" fill="black"/>
<path d="M12.146 18.1452H15.6883C16.0801 18.1452 16.3968 17.8285 16.3968 17.4367C16.3968 17.045 16.0801 16.7283 15.6883 16.7283H12.146C11.7542 16.7283 11.4375 17.045 11.4375 17.4367C11.4375 17.8285 11.7542 18.1452 12.146 18.1452Z" fill="black"/>
<path d="M22.7729 18.1452H27.7322C28.124 18.1452 28.4407 17.8285 28.4407 17.4367C28.4407 17.045 28.124 16.7283 27.7322 16.7283H22.7729C22.3811 16.7283 22.0645 17.045 22.0645 17.4367C22.0645 17.8285 22.3811 18.1452 22.7729 18.1452Z" fill="black"/>
<path d="M18.7269 16.9408C18.5923 17.0684 18.5215 17.2519 18.5215 17.4368C18.5215 17.621 18.5923 17.8052 18.7269 17.9398C18.8608 18.0673 19.0458 18.1452 19.23 18.1452C19.4142 18.1452 19.5984 18.0737 19.733 17.9327C19.8605 17.8045 19.9384 17.621 19.9384 17.4368C19.9384 17.2519 19.8605 17.0677 19.733 16.9338C19.4638 16.6716 18.9891 16.6716 18.7269 16.9408Z" fill="black"/>
<path d="M31.2749 18.1454C31.4591 18.1454 31.6433 18.0675 31.7779 17.9399C31.9054 17.8053 31.9833 17.6211 31.9833 17.4369C31.9833 17.252 31.9054 17.0678 31.7779 16.9339C31.5087 16.6718 31.0411 16.6718 30.7719 16.9339C30.6436 17.0678 30.5664 17.252 30.5664 17.4369C30.5664 17.6211 30.6436 17.8053 30.7719 17.9399C30.9058 18.0675 31.0907 18.1454 31.2749 18.1454Z" fill="black"/>
<path d="M20.6463 22.3962H15.687C15.2952 22.3962 14.9785 22.7129 14.9785 23.1047C14.9785 23.4965 15.2952 23.8132 15.687 23.8132H20.6463C21.0381 23.8132 21.3547 23.4965 21.3547 23.1047C21.3547 22.7129 21.0381 22.3962 20.6463 22.3962Z" fill="black"/>
<path d="M12.146 23.8131C12.3302 23.8131 12.5144 23.7352 12.649 23.6077C12.7829 23.473 12.8544 23.2888 12.8544 23.1046C12.8544 22.9197 12.7829 22.7355 12.649 22.6016C12.3798 22.3395 11.9122 22.3395 11.643 22.6016C11.5083 22.7355 11.4375 22.9126 11.4375 23.1046C11.4375 23.2888 11.5147 23.473 11.643 23.6077C11.7769 23.7352 11.9618 23.8131 12.146 23.8131Z" fill="black"/>
<path d="M14.3731 28.89C12.8215 29.6977 12.2994 31.2429 12.1088 32.8447C11.8155 32.5989 11.5222 32.3537 11.2289 32.1079C10.5346 31.5263 9.52714 32.5231 10.2271 33.1104C10.8895 33.6651 11.5527 34.2206 12.2151 34.776C12.6812 35.1664 13.4032 34.9198 13.4244 34.2751C13.4761 32.7406 13.5484 30.9156 15.0879 30.1143C15.897 29.6927 15.1814 28.4692 14.3731 28.89Z" fill="black"/>
<path d="M19.0844 31.716C18.1032 31.9435 16.9866 33.1918 16.2959 31.7911C15.8928 30.9736 14.6699 31.6905 15.0724 32.506C15.4386 33.2492 16.1351 33.7699 16.9633 33.8748C17.3841 33.9279 17.7645 33.8684 18.1592 33.7146C18.4489 33.602 19.5315 32.788 19.7653 33.2067C20.2102 34.003 21.4344 33.2889 20.9888 32.4918C20.6083 31.8103 19.8382 31.5411 19.0844 31.716Z" fill="black"/>
<path d="M33.5735 24.885C33.4085 24.8262 33.3355 24.7015 33.3065 24.6321C33.2781 24.5627 33.2406 24.4224 33.3164 24.2637C33.66 23.5396 33.5162 22.7058 32.9494 22.1383C32.3819 21.5722 31.5473 21.4277 30.8247 21.7713C30.6646 21.8471 30.5243 21.8095 30.4556 21.7812C30.3854 21.7522 30.2614 21.6792 30.2026 21.5141C29.9341 20.7582 29.2427 20.2708 28.4407 20.2708C27.6387 20.2708 26.9472 20.7582 26.6787 21.5141C26.6199 21.6792 26.4952 21.7522 26.4258 21.7812C26.3571 21.8095 26.2161 21.8478 26.0574 21.7713C25.334 21.4291 24.5002 21.5715 23.932 22.1383C23.3652 22.7058 23.2214 23.5396 23.565 24.263C23.6401 24.4224 23.6032 24.5627 23.5749 24.6321C23.5459 24.7022 23.4729 24.8262 23.3078 24.885C22.5519 25.1535 22.0645 25.845 22.0645 26.647C22.0645 27.449 22.5519 28.1404 23.3078 28.4089C23.4729 28.4677 23.5459 28.5924 23.5749 28.6619C23.6032 28.7313 23.6408 28.8716 23.565 29.0303C23.2214 29.7543 23.3652 30.5882 23.932 31.1557C24.2062 31.4291 24.5427 31.602 24.8983 31.6714V40.4012L28.4407 36.8589L31.983 40.4012V31.6707C32.3387 31.602 32.6759 31.4299 32.9494 31.1557C33.5162 30.5882 33.66 29.7543 33.3164 29.031C33.2413 28.8716 33.2781 28.7313 33.3065 28.6619C33.3355 28.5917 33.4085 28.4677 33.5735 28.4089C34.3295 28.1404 34.8169 27.449 34.8169 26.647C34.8169 25.845 34.3295 25.1535 33.5735 24.885ZM28.4407 34.8553L26.3153 36.9807V31.4844C26.3216 31.4851 26.328 31.4858 26.3337 31.4872C26.3691 31.4943 26.4031 31.5028 26.4258 31.5127C26.4605 31.5276 26.5094 31.5531 26.5562 31.5949C26.6036 31.6374 26.6497 31.6969 26.6787 31.7798C26.9472 32.5358 27.6387 33.0232 28.4407 33.0232C29.2427 33.0232 29.9341 32.5358 30.2026 31.7798C30.2317 31.6969 30.2777 31.6374 30.3252 31.5949C30.3727 31.5524 30.4209 31.5269 30.4556 31.5127C30.4782 31.5035 30.5115 31.4943 30.547 31.4872C30.5526 31.4865 30.559 31.4851 30.5654 31.4844V36.98L28.4407 34.8553ZM33.0989 27.0742C32.6015 27.2506 32.1998 27.6318 31.9979 28.1199C31.7953 28.608 31.8087 29.162 32.0362 29.6403C32.1601 29.9003 32.0156 30.0866 31.9469 30.1546C31.8909 30.212 31.7478 30.3133 31.5494 30.2751L31.3936 30.2262C31.3291 30.1971 31.2611 30.1815 31.1945 30.161C31.1449 30.1454 31.0967 30.1241 31.0464 30.1121C30.977 30.0965 30.9054 30.0923 30.8346 30.0845C30.7772 30.0781 30.7212 30.0661 30.6639 30.0646C30.5951 30.0632 30.5271 30.0746 30.4591 30.0802C30.4003 30.0859 30.3408 30.0845 30.282 30.0958C30.1566 30.1192 30.0333 30.1553 29.9136 30.2049C29.9136 30.2049 29.9129 30.2049 29.9122 30.2056C29.881 30.2184 29.8548 30.2389 29.8243 30.2531C29.7365 30.2956 29.6479 30.3374 29.5679 30.3927C29.4722 30.4585 29.3851 30.5365 29.3036 30.6187C29.2944 30.6279 29.2823 30.635 29.2731 30.6449C29.0946 30.8326 28.955 31.0579 28.8665 31.3066C28.7715 31.5772 28.537 31.6063 28.4407 31.6063C28.3443 31.6063 28.1098 31.5772 28.0135 31.3052C27.9249 31.0558 27.7853 30.8312 27.6068 30.6435C27.5997 30.6357 27.5905 30.6307 27.5827 30.6229C27.4991 30.5379 27.4099 30.4593 27.3114 30.3912C27.2349 30.3381 27.1491 30.2984 27.0648 30.2573C27.0315 30.241 27.0018 30.2184 26.9671 30.2042C26.9664 30.2042 26.9664 30.2035 26.9664 30.2035C26.9515 30.1971 26.9359 30.1957 26.921 30.19C26.8176 30.1504 26.7127 30.1171 26.6057 30.0965C26.5193 30.0795 26.4336 30.076 26.3472 30.071C26.3153 30.0696 26.2834 30.0618 26.2515 30.0618C26.2494 30.0618 26.248 30.0625 26.2458 30.0625C25.9809 30.0618 25.7237 30.1135 25.5041 30.2205L25.3433 30.2708C25.1399 30.3169 24.9918 30.212 24.9338 30.1532C24.865 30.0852 24.7205 29.8996 24.8445 29.6381C25.0712 29.1606 25.0854 28.6073 24.8827 28.1185C24.6808 27.631 24.2791 27.2492 23.7818 27.0728C23.5104 26.9778 23.4814 26.7433 23.4814 26.647C23.4814 26.5506 23.5104 26.3161 23.7825 26.2198C24.2798 26.0434 24.6815 25.6622 24.8835 25.1741C25.0861 24.6859 25.0726 24.1319 24.8452 23.6537C24.7212 23.3937 24.8657 23.2074 24.9345 23.1393C25.0025 23.0706 25.1874 22.9275 25.4495 23.0501C25.9263 23.2768 26.4803 23.2924 26.9692 23.0883C27.4566 22.8864 27.8385 22.4847 28.0149 21.9874C28.1098 21.7167 28.3443 21.6877 28.4407 21.6877C28.537 21.6877 28.7715 21.7167 28.8679 21.9888C29.045 22.4861 29.4255 22.8878 29.9136 23.0898C30.401 23.2938 30.9557 23.2789 31.434 23.0515C31.6933 22.9261 31.881 23.072 31.9483 23.1408C32.017 23.2088 32.1616 23.3944 32.0376 23.6558C31.8109 24.1333 31.7967 24.6866 31.9993 25.1755C32.2012 25.6629 32.6029 26.0448 33.1003 26.2212C33.3709 26.3161 33.4 26.5506 33.4 26.647C33.4 26.7433 33.3709 26.9778 33.0989 27.0742Z" fill="black"/>
</g>
<defs>
<clipPath id="clip0">
<rect width="42.5082" height="42.5082" fill="white" transform="translate(0.455078 0.433594)"/>
</clipPath>
</defs>
</svg>
