<svg width="36" height="36" viewBox="0 0 36 36" fill="none" xmlns="http://www.w3.org/2000/svg">
<path d="M26.0827 0.0620117H9.97987C4.51144 0.0620117 0.0625 4.51116 0.0625 9.9796V26.0824C0.0625 31.5511 4.51144 36 9.97987 36H26.0827C31.5516 36 36.0005 31.5509 36.0005 26.0824V9.9796C36.0007 4.51116 31.5516 0.0620117 26.0827 0.0620117ZM32.8121 26.0824C32.8121 29.7929 29.7934 32.8114 26.0829 32.8114H9.97987C6.26963 32.8116 3.25109 29.7929 3.25109 26.0824V9.9796C3.25109 6.26935 6.26963 3.2506 9.97987 3.2506H26.0827C29.7931 3.2506 32.8119 6.26935 32.8119 9.9796V26.0824H32.8121Z" fill="#E76FB0"/>
<path d="M18.0318 8.771C12.9256 8.771 8.77148 12.9251 8.77148 18.0313C8.77148 23.1373 12.9256 27.2912 18.0318 27.2912C23.138 27.2912 27.2921 23.1373 27.2921 18.0313C27.2921 12.9251 23.138 8.771 18.0318 8.771ZM18.0318 24.1024C14.684 24.1024 11.9601 21.3789 11.9601 18.0311C11.9601 14.6831 14.6838 11.9594 18.0318 11.9594C21.3798 11.9594 24.1035 14.6831 24.1035 18.0311C24.1035 21.3789 21.3796 24.1024 18.0318 24.1024Z" fill="#E76FB0"/>
<path d="M27.6801 6.06738C27.0658 6.06738 26.4623 6.31609 26.0284 6.75187C25.5924 7.18552 25.3418 7.78922 25.3418 8.40568C25.3418 9.02023 25.5926 9.62373 26.0284 10.0595C26.4621 10.4931 27.0658 10.744 27.6801 10.744C28.2966 10.744 28.8981 10.4931 29.3339 10.0595C29.7697 9.62373 30.0184 9.02002 30.0184 8.40568C30.0184 7.78922 29.7697 7.18552 29.3339 6.75187C28.9003 6.31609 28.2966 6.06738 27.6801 6.06738Z" fill="#E76FB0"/>
</svg>
