<svg width="49" height="49" viewBox="0 0 49 49" fill="none" xmlns="http://www.w3.org/2000/svg">
<path d="M30.5227 44.3193C30.4162 44.3193 30.3096 44.3002 30.2084 44.2621C26.4681 42.8613 23.3332 40.819 20.8899 38.1924C18.6822 35.8195 16.9643 32.8834 15.7828 29.4669C15.6213 28.9993 15.8689 28.489 16.3368 28.3272C16.8045 28.1654 17.3148 28.4135 17.4766 28.8815C19.7645 35.4988 24.0336 39.9448 30.5224 42.464C44.5689 37.0064 46.0592 23.0246 45.5811 9.95355C40.0638 4.36528 30.618 4.28649 30.5219 4.28621C30.4271 4.28649 20.9814 4.36528 15.4637 9.95355C15.2891 14.7503 15.4301 18.6097 15.9059 22.0744C15.9732 22.5648 15.6303 23.017 15.1399 23.0843C14.6504 23.1519 14.1978 22.8087 14.1305 22.3183C13.6286 18.6655 13.4876 14.6059 13.6861 9.54335C13.6945 9.32746 13.7809 9.12166 13.9287 8.96437C16.4297 6.3058 20.0951 4.34453 24.5282 3.2917C27.8496 2.50327 30.415 2.49402 30.5227 2.49402C30.6304 2.49402 33.1953 2.50327 36.517 3.2917C40.9503 4.34453 44.6152 6.30636 47.1168 8.96437C47.2645 9.12166 47.3509 9.32746 47.3593 9.54335C47.7086 18.4645 46.997 24.791 45.052 30.0563C43.8439 33.3261 42.1232 36.1414 39.9376 38.4234C37.5297 40.9379 34.4677 42.9022 30.837 44.2621C30.7355 44.3002 30.6293 44.3193 30.5227 44.3193Z" fill="white"/>
<path d="M32.8734 18.2262C32.711 18.2262 32.5473 18.1825 32.3998 18.0902C31.9798 17.8281 31.8516 17.2754 32.1138 16.8557C33.1888 15.1331 35.2372 14.0626 37.4604 14.0626C39.683 14.0626 41.7314 15.1331 42.8064 16.8557C43.0686 17.2754 42.9407 17.8281 42.5207 18.0902C42.101 18.3521 41.5483 18.2243 41.2862 17.8042C40.5356 16.602 39.0698 15.8548 37.4604 15.8548C35.8504 15.8548 34.3846 16.602 33.634 17.8042C33.4644 18.0768 33.1722 18.2262 32.8734 18.2262ZM28.1744 18.2262C27.8756 18.2262 27.5834 18.0768 27.4135 17.8042C26.6632 16.602 25.1971 15.8548 23.5877 15.8548C21.978 15.8548 20.5119 16.602 19.7616 17.8042C19.4997 18.2243 18.9471 18.3521 18.5274 18.0902C18.1074 17.8281 17.9795 17.2754 18.2414 16.8557C19.3167 15.1331 21.3651 14.0626 23.5877 14.0626C25.8106 14.0626 27.859 15.1331 28.934 16.8557C29.1962 17.2754 29.0677 17.8281 28.648 18.0902C28.5003 18.1825 28.3362 18.2262 28.1744 18.2262Z" fill="white"/>
<path d="M30.5232 35.4766C25.7352 35.4766 21.8398 32.1045 21.8398 27.9591C21.8398 27.6271 21.8654 27.2918 21.9155 26.9626C21.9612 26.664 22.1547 26.408 22.4295 26.2827C22.7043 26.1571 23.0239 26.1787 23.2796 26.3402C25.1318 27.5085 27.7719 28.1786 30.523 28.1786C33.274 28.1786 35.9141 27.5085 37.7666 26.3402C38.022 26.1787 38.3416 26.1571 38.6164 26.2827C38.8915 26.408 39.0847 26.6637 39.1301 26.9623C39.1805 27.2912 39.2063 27.6268 39.2063 27.9591C39.2063 32.1045 35.311 35.4766 30.5232 35.4766ZM23.673 28.5843C24.049 31.4479 26.9775 33.6845 30.5232 33.6845C34.0686 33.6845 36.9972 31.4479 37.3732 28.5838C35.4145 29.4846 33.038 29.9708 30.5232 29.9708C28.0085 29.9708 25.632 29.4846 23.673 28.5843Z" fill="white"/>
<path d="M24.1965 46.3941L23.8609 46.3879C20.6833 46.3316 17.7786 45.6519 15.2271 44.3678C12.9112 43.2022 10.8097 41.4978 8.98052 39.3022C6.04437 35.7775 3.77049 31.1041 1.60735 24.1493L1.50781 23.8293L1.64268 23.5226C4.54602 16.9196 12.3686 14.0827 12.7003 13.965C12.7247 13.956 13.3149 13.7482 14.2873 13.511L14.7121 15.2522C13.8362 15.4659 13.3037 15.6523 13.2981 15.6546C13.2269 15.6798 6.1212 18.2677 3.42057 23.944C6.58327 33.9965 11.4849 44.1898 23.5561 44.5876C24.6995 43.5965 25.6935 42.5285 26.5139 41.4092L27.9595 42.4682C26.9936 43.786 25.8143 45.0343 24.4533 46.1782L24.1965 46.3941Z" fill="white"/>
<path fill-rule="evenodd" clip-rule="evenodd" d="M15.6536 26.6208C16.1474 26.6208 16.5497 26.2182 16.5497 25.7247C16.5497 25.2312 16.1474 24.8286 15.6536 24.8286C15.1602 24.8286 14.7578 25.2312 14.7578 25.7247C14.7578 26.2182 15.1602 26.6208 15.6536 26.6208Z" fill="white"/>
</svg>
