<svg width="43" height="43" viewBox="0 0 43 43" fill="none" xmlns="http://www.w3.org/2000/svg">
<path d="M42.1602 31.2422C39.1854 31.2422 36.7197 33.463 36.3337 36.3337C33.7382 36.6826 31.6743 38.732 31.3024 41.3203H22.3398V34.4336H26.5391C29.5141 34.4336 31.9785 32.2117 32.3639 29.3404C35.2351 28.955 37.457 26.4907 37.457 23.5156C37.457 21.2194 36.103 19.1463 34.0713 18.1915C34.6457 16.6769 34.9375 15.082 34.9375 13.4375C34.9375 6.02806 28.9094 0 21.5 0C14.0906 0 8.0625 6.02806 8.0625 13.4375C8.0625 20.5648 13.6405 26.4129 20.6602 26.848V41.3203H14.2773V40.9004C14.2773 37.6515 12.0835 34.8402 8.98557 34.0144C8.15975 30.9165 5.34846 28.7227 2.09961 28.7227H0.839844C0.375998 28.7227 0 29.0987 0 29.5625V42.1602C0 42.624 0.375998 43 0.839844 43H42.1602C42.624 43 43 42.624 43 42.1602V32.082C43 31.6182 42.624 31.2422 42.1602 31.2422ZM26.5391 32.7539H22.3398V26.8485C23.6881 26.7662 24.9987 26.4849 26.254 26.0088C27.0804 27.7674 28.745 29.0176 30.6667 29.322C30.305 31.2722 28.5924 32.7539 26.5391 32.7539ZM35.7773 23.5156C35.7773 25.5435 34.3324 27.2402 32.418 27.6304V23.5156C32.418 23.0518 32.042 22.6758 31.5781 22.6758C31.1143 22.6758 30.7383 23.0518 30.7383 23.5156V27.629C28.8067 27.2312 27.3789 25.5338 27.3789 23.5156C27.3789 21.2002 29.2627 19.3164 31.5781 19.3164C31.9712 19.3164 32.3593 19.3705 32.7319 19.4772C32.7322 19.4772 32.7325 19.4773 32.7328 19.4774C34.5254 19.9883 35.7773 21.6489 35.7773 23.5156ZM9.74219 13.4375C9.74219 6.95424 15.0167 1.67969 21.5 1.67969C27.9833 1.67969 33.2578 6.95424 33.2578 13.4375C33.2578 14.9155 32.9895 16.3474 32.46 17.7035C32.1693 17.6596 31.8746 17.6367 31.5781 17.6367C28.3365 17.6367 25.6992 20.274 25.6992 23.5156C25.6992 23.8122 25.7221 24.1069 25.7659 24.3975C24.6683 24.826 23.521 25.0827 22.3398 25.1652V16.7359C25.185 16.327 27.3789 13.8744 27.3789 10.918V8.39844C27.3789 7.93459 27.0029 7.55859 26.5391 7.55859C26.0752 7.55859 25.6992 7.93459 25.6992 8.39844V10.918C25.6992 12.9459 24.2543 14.6425 22.3398 15.0327V8.81828C22.3398 8.35443 21.9638 7.97843 21.5 7.97843C21.0362 7.97843 20.6602 8.35443 20.6602 8.81828V17.5522C18.7457 17.162 17.3008 15.4655 17.3008 13.4375V10.918C17.3008 10.4541 16.9248 10.0781 16.4609 10.0781C15.9971 10.0781 15.6211 10.4541 15.6211 10.918V13.4375C15.6211 16.3939 17.815 18.8466 20.6602 19.2554V25.165C14.5673 24.7329 9.74219 19.6384 9.74219 13.4375ZM37.1211 37.9609C37.5849 37.9609 37.9609 37.5849 37.9609 37.1211C37.9609 35.0932 39.406 33.3965 41.3203 33.0062V41.3203H33.0064C33.3966 39.4059 35.0932 37.9609 37.1211 37.9609ZM1.67969 30.4023H2.09961C4.72723 30.4023 6.98053 32.2807 7.45739 34.8689C7.52055 35.2115 7.78854 35.4795 8.13111 35.5426C10.7193 36.0195 12.5977 38.2728 12.5977 40.9004V41.3203H1.67969V30.4023Z" fill="white"/>
<path d="M21.5 5.87885C21.9638 5.87885 22.3398 5.50284 22.3398 5.039C22.3398 4.57517 21.9638 4.19916 21.5 4.19916C21.0362 4.19916 20.6602 4.57517 20.6602 5.039C20.6602 5.50284 21.0362 5.87885 21.5 5.87885Z" fill="white"/>
</svg>
