<svg width="43" height="44" viewBox="0 0 43 44" fill="none" xmlns="http://www.w3.org/2000/svg">
<path fill-rule="evenodd" clip-rule="evenodd" d="M41.2259 27.2677C40.4149 25.4109 38.7224 24.3044 36.332 24.0677C33.9121 23.8283 31.0289 24.5458 28.708 25.7934C27.7491 23.8635 26.3343 21.794 24.624 19.8352C24.3194 19.486 24.0116 19.1486 23.7026 18.8218C24.4223 17.9683 24.9466 17.1148 25.3209 16.3761C26.2923 14.4599 26.4955 12.8934 26.5039 12.8277C26.5585 12.3871 26.2546 11.9853 25.824 11.9279C25.3934 11.8707 24.9988 12.1816 24.9419 12.622C24.9402 12.6358 24.7535 14.0186 23.8945 15.6903C23.52 16.4192 23.0813 17.0861 22.5818 17.6921C21.4827 16.6397 20.3785 15.7394 19.3163 15.0216C19.5471 14.691 19.7678 14.3461 19.9745 13.9881C21.0716 12.0882 21.6422 10.0743 21.5817 8.31746C21.498 5.90399 20.2754 4.00514 18.0452 2.82686C17.0374 2.29386 15.8704 2.21203 14.76 2.59674C13.5563 3.01342 12.5482 3.93968 11.9944 5.13836C11.3559 6.51982 11.9038 8.16061 13.216 8.79532C13.857 9.10525 14.5804 9.13194 15.2526 8.86985C15.9134 8.61204 16.4466 8.10472 16.7532 7.44105C16.939 7.03897 16.7709 6.5586 16.378 6.36851C15.9848 6.17817 15.5156 6.34988 15.3298 6.75246C15.1974 7.03797 14.9711 7.2555 14.6918 7.36426C14.4241 7.46849 14.1389 7.45968 13.889 7.33858C13.3619 7.08354 13.1503 6.40577 13.4178 5.8272C13.79 5.02154 14.463 4.40042 15.2644 4.12297C15.9668 3.88001 16.6976 3.92785 17.3228 4.25842C19.0415 5.16656 19.9447 6.5513 20.0077 8.37462C20.0773 10.383 19.1337 12.5389 17.952 14.187C16.67 13.4906 15.491 13.1087 14.5129 13.1087C13.7603 13.1087 13.138 13.3287 12.6636 13.763C12.3261 14.0714 12.0119 14.5349 11.8694 15.2281L1.78953 35.3241C1.24256 36.4098 1.17244 37.6865 1.59687 38.827C2.23537 40.5413 3.83567 41.5975 5.52946 41.5972C6.02525 41.5972 6.52916 41.5068 7.01953 41.3155L14.7164 38.3353C15.1231 38.1779 15.3283 37.7127 15.1741 37.2967C15.0203 36.8803 14.5661 36.6706 14.1591 36.8279L6.46026 39.8094C5.10626 40.3371 3.58445 39.6395 3.06824 38.2535C2.80275 37.5405 2.8468 36.7418 3.18979 36.0611L12.1469 18.2037C12.2471 18.5378 12.3696 18.8936 12.5197 19.2738C13.2903 21.228 14.6153 23.4068 16.3039 25.5131C16.3054 25.5146 16.3066 25.5164 16.3079 25.5179C16.3736 25.6 16.4397 25.6818 16.5069 25.7636C16.5222 25.7828 16.5379 25.8022 16.5539 25.821C16.6073 25.8865 16.6614 25.9515 16.7161 26.0169C16.737 26.0421 16.7579 26.0673 16.779 26.0925C16.831 26.1546 16.8834 26.2163 16.9358 26.278C16.9572 26.3027 16.9781 26.3276 16.9993 26.3525C17.0716 26.4371 17.1444 26.5215 17.218 26.6058C17.3147 26.7166 17.4119 26.8259 17.5091 26.9344C17.546 26.9754 17.5826 27.0162 17.6195 27.0567C17.6761 27.1192 17.7325 27.1811 17.7893 27.2428C20.1671 29.8348 22.6778 31.7696 24.8069 32.7057L20.0483 34.5479C19.6418 34.7055 19.4369 35.1705 19.5906 35.5867C19.7449 36.0029 20.1991 36.2124 20.6056 36.055L27.6839 33.3142C28.2788 33.2548 28.7805 33.0418 29.1786 32.678C29.9478 31.9748 30.5971 30.4644 29.3595 27.2639C29.7586 27.0459 30.1833 26.8412 30.6286 26.6557C32.5158 25.8679 34.5396 25.5091 36.1804 25.6717C38 25.8518 39.214 26.6098 39.7885 27.9253C40.1384 28.7265 40.149 29.6268 39.8183 30.4612C39.4832 31.3071 38.839 31.9831 38.0047 32.3648C37.3475 32.6654 36.5886 32.3978 36.3133 31.7679C36.0385 31.1379 36.3492 30.3811 37.0067 30.0802C37.4036 29.8987 37.5817 29.4221 37.4043 29.0163C37.2269 28.6099 36.7611 28.4281 36.364 28.6094C34.914 29.2728 34.2465 30.9844 34.8761 32.4255C35.336 33.4779 36.3623 34.0993 37.4476 34.0993C37.8482 34.0993 38.2566 34.0144 38.6473 33.8357C39.8549 33.2835 40.7889 32.2999 41.2776 31.0669C41.7709 29.8219 41.7525 28.4727 41.2259 27.2677ZM28.1295 31.4761C27.9742 31.6183 27.7489 31.6989 27.458 31.7168C27.4108 31.7195 27.3616 31.7203 27.3114 31.72C27.2841 31.7195 27.2558 31.7183 27.2275 31.717C27.1992 31.7157 27.1709 31.715 27.1416 31.7127C27.1099 31.7102 27.0774 31.7067 27.0447 31.7032C27.0174 31.7001 26.99 31.6974 26.962 31.6936C26.9271 31.6888 26.8906 31.683 26.854 31.6767C26.8267 31.6724 26.7994 31.6677 26.7713 31.6626C26.7342 31.6553 26.6963 31.6475 26.6581 31.639C26.6284 31.6327 26.5981 31.6259 26.5678 31.6186C26.5312 31.6098 26.4943 31.6004 26.4566 31.5906C26.4207 31.581 26.3848 31.571 26.3479 31.5607C26.3159 31.5513 26.2836 31.5418 26.2509 31.5317C26.2039 31.5174 26.1564 31.5022 26.1085 31.4861C26.0856 31.4786 26.0627 31.4708 26.0396 31.4627C25.9756 31.4406 25.9104 31.4171 25.8447 31.392C25.8376 31.3895 25.8304 31.3867 25.823 31.3842C23.8911 30.6427 21.1415 28.6807 18.3924 25.532C18.2713 25.3935 18.1522 25.2546 18.0344 25.1151C18.0061 25.0813 17.9788 25.0481 17.9507 25.0146C17.8607 24.9071 17.7711 24.7994 17.6833 24.6914C17.6547 24.6566 17.6272 24.6219 17.5994 24.5874C17.5123 24.4796 17.4259 24.3716 17.341 24.2641C17.3147 24.2311 17.2896 24.1979 17.2638 24.1649C17.1774 24.0541 17.0918 23.9433 17.0076 23.8326C16.9847 23.8026 16.9623 23.7729 16.94 23.7429C16.8531 23.6276 16.7677 23.5123 16.6831 23.397C16.6646 23.3716 16.6454 23.3456 16.627 23.3202C16.5372 23.1966 16.4491 23.0725 16.3622 22.9489C16.3502 22.9322 16.3384 22.9151 16.3263 22.8982C16.1295 22.6165 15.9405 22.3348 15.7602 22.0548C15.738 22.0206 15.7171 21.9868 15.6954 21.9528C15.6337 21.8557 15.5722 21.7587 15.5124 21.6621C15.4762 21.6029 15.4408 21.5447 15.4054 21.4861C15.363 21.4163 15.3212 21.3466 15.2799 21.2771C15.2388 21.2076 15.1982 21.1386 15.1586 21.0696C15.1266 21.0142 15.0951 20.9594 15.0641 20.9042C15.0198 20.8264 14.9758 20.7486 14.9334 20.6718C14.9169 20.6424 14.9014 20.6127 14.8855 20.583C14.7804 20.3904 14.6805 20.2005 14.5867 20.0142C14.5808 20.0019 14.5744 19.99 14.5683 19.9777C14.524 19.8893 14.4814 19.8017 14.4396 19.7149C14.4236 19.6811 14.4076 19.6479 14.3921 19.6144C14.3518 19.5298 14.3127 19.4457 14.2753 19.3624C14.261 19.3317 14.2474 19.3007 14.2339 19.27C13.8693 18.451 13.6203 17.7085 13.4867 17.0715C13.4849 17.0637 13.4835 17.0562 13.482 17.0486C13.4662 16.9728 13.4522 16.8983 13.4399 16.8253C13.4389 16.8208 13.4382 16.8167 13.4377 16.8119C13.3595 16.3459 13.3484 15.9436 13.4042 15.6186C13.4057 15.6087 13.4067 15.5987 13.4079 15.5891C13.4591 15.3159 13.5605 15.1037 13.713 14.9647C13.8904 14.8023 14.1596 14.72 14.5132 14.72C15.1101 14.72 15.9319 14.9597 16.907 15.4526C16.4619 15.9159 16.0143 16.2923 15.5992 16.5516C15.2277 16.783 15.1106 17.279 15.337 17.6589C15.4851 17.9079 15.7442 18.0454 16.0099 18.0454C16.1494 18.0451 16.2909 18.0074 16.4188 17.9273C17.061 17.5267 17.7093 16.962 18.3208 16.282C19.2946 16.9263 20.3637 17.7757 21.4795 18.8425C20.6902 19.5487 19.7907 20.1393 18.7831 20.6094C18.3875 20.7937 18.2128 21.2716 18.3934 21.6764C18.5252 21.973 18.8112 22.1482 19.1103 22.1482C19.2196 22.1482 19.3306 22.1246 19.4364 22.0755C20.7077 21.4823 21.7485 20.7494 22.5991 19.9714C22.8813 20.2708 23.165 20.582 23.4499 20.9085C25.1056 22.8043 26.4608 24.7943 27.3557 26.6272C26.4854 27.243 25.7549 27.9389 25.2436 28.6817C24.9936 29.0457 25.0787 29.548 25.4348 29.8043C25.7903 30.0604 26.2814 29.973 26.5314 29.6092C26.8803 29.1024 27.3827 28.6026 28.0003 28.1356C28.5795 29.7527 28.6337 31.0153 28.1295 31.4761Z" fill="white"/>
<path fill-rule="evenodd" clip-rule="evenodd" d="M27.3897 17.8C27.1181 18.1464 27.1725 18.6522 27.5108 18.9307C27.6559 19.0503 27.8304 19.1084 28.0036 19.1084C28.2337 19.1084 28.4615 19.0059 28.6173 18.8088C28.6281 18.795 29.7446 17.3974 31.7945 16.1433C34.515 14.4784 37.5136 13.8363 40.7056 14.2354C41.1372 14.2895 41.5299 13.9748 41.5828 13.5335C41.6354 13.0919 41.3281 12.69 40.8968 12.6361C36.4465 12.0802 33.0188 13.504 30.9272 14.7966C28.6566 16.1997 27.4404 17.735 27.3897 17.8Z" fill="white"/>
<path fill-rule="evenodd" clip-rule="evenodd" d="M36.028 16.5403C34.3347 16.5403 32.957 17.9503 32.957 19.6829C32.957 21.4156 34.3347 22.8253 36.028 22.8253C37.721 22.8253 39.0989 21.4156 39.0989 19.6829C39.0989 17.9503 37.721 16.5403 36.028 16.5403ZM36.028 21.214C35.2027 21.214 34.5317 20.5271 34.5317 19.6829C34.5317 18.8388 35.2027 18.1517 36.028 18.1517C36.853 18.1517 37.5242 18.8388 37.5242 19.6829C37.5242 20.5271 36.853 21.214 36.028 21.214Z" fill="white"/>
<path fill-rule="evenodd" clip-rule="evenodd" d="M9.6561 34.2833C9.79266 34.385 9.9553 34.4372 10.1189 34.4372C10.2208 34.4372 10.3226 34.417 10.4193 34.3762L12.3838 33.5459L14.3485 34.3762C14.6014 34.4827 14.8905 34.448 15.1115 34.2833C15.3329 34.1187 15.4552 33.8483 15.4338 33.5693L15.2694 31.4008L16.6481 29.7454C16.8257 29.5324 16.8823 29.2404 16.7977 28.9738C16.713 28.7076 16.4992 28.5055 16.2335 28.4398L14.1674 27.9297L13.0545 26.0766C12.9116 25.838 12.6576 25.6927 12.3838 25.6927C12.1104 25.6927 11.8563 25.838 11.7131 26.0766L10.6002 27.9297L8.53437 28.4398C8.26839 28.5055 8.05457 28.7076 7.96993 28.9738C7.88578 29.2404 7.94237 29.5324 8.11953 29.7454L9.49838 31.4008L9.33378 33.5693C9.31286 33.8483 9.43466 34.1187 9.6561 34.2833ZM11.2859 29.4179C11.4882 29.3678 11.6629 29.2381 11.7721 29.0566L12.3838 28.0372L12.9955 29.0566C13.1047 29.2379 13.2794 29.3678 13.4819 29.4179L14.6182 29.6986L13.8601 30.6087C13.725 30.7711 13.6583 30.9814 13.6743 31.1939L13.7649 32.3862L12.6842 31.9295C12.588 31.889 12.4859 31.8686 12.3838 31.8686C12.2817 31.8686 12.1796 31.889 12.0834 31.9295L11.003 32.3862L11.0933 31.1939C11.1095 30.9814 11.0426 30.7711 10.9077 30.609L10.1494 29.6986L11.2859 29.4179Z" fill="white"/>
<path fill-rule="evenodd" clip-rule="evenodd" d="M24.4764 9.90919L27.2105 10.5376L28.7148 12.9564C28.8595 13.189 29.1102 13.3295 29.3792 13.3295H29.3917C29.6651 13.325 29.917 13.1754 30.0563 12.9345L31.4854 10.4681L34.1985 9.75108C34.4633 9.68134 34.6736 9.47539 34.7544 9.20801C34.8346 8.94038 34.7733 8.64908 34.5929 8.43911L32.7417 6.28622L32.9139 3.42434C32.9309 3.14488 32.8047 2.87649 32.5808 2.71561C32.3566 2.55448 32.0675 2.52401 31.8158 2.63504L29.2431 3.77128L26.6367 2.71914C26.3821 2.61666 26.0934 2.65619 25.8747 2.82463C25.6562 2.99256 25.5384 3.26523 25.5639 3.54368L25.825 6.39876L24.0414 8.61031C23.8674 8.82608 23.815 9.11914 23.9039 9.38425C23.9924 9.64911 24.209 9.84801 24.4764 9.90919ZM27.2462 7.16767C27.3788 7.00326 27.4425 6.79228 27.4231 6.58003L27.2509 4.69931L28.9678 5.39243C29.1617 5.47073 29.3775 5.46696 29.5689 5.38261L31.2632 4.6341L31.15 6.51936C31.1372 6.7321 31.2073 6.94107 31.3446 7.10095L32.5638 8.51892L30.777 8.99073C30.5752 9.04436 30.4022 9.17679 30.2962 9.36033L29.3553 10.9848L28.3645 9.3918C28.2525 9.21204 28.0756 9.0849 27.8726 9.03807L26.0715 8.62441L27.2462 7.16767Z" fill="white"/>
<path fill-rule="evenodd" clip-rule="evenodd" d="M17.1252 35.7361C16.6915 35.7361 16.3379 36.0976 16.3379 36.5417C16.3379 36.9854 16.6915 37.3474 17.1252 37.3474C17.5588 37.3474 17.9126 36.9854 17.9126 36.5417C17.9126 36.0979 17.5588 35.7361 17.1252 35.7361Z" fill="white"/>
</svg>
