<svg width="39" height="40" viewBox="0 0 39 40" fill="none" xmlns="http://www.w3.org/2000/svg">
<g clip-path="url(#clip0)">
<path d="M15.1387 36.6599C15.0893 36.6599 15.0387 36.6544 14.9902 36.6443C14.9414 36.6342 14.8935 36.6193 14.8477 36.5998C14.8013 36.5802 14.7572 36.5561 14.7159 36.528C14.6739 36.4997 14.6352 36.467 14.6001 36.431C14.565 36.395 14.5332 36.3553 14.5058 36.3123C14.4784 36.2702 14.4546 36.2247 14.4356 36.1771C14.4165 36.1304 14.4014 36.081 14.3915 36.0309C14.3814 35.9812 14.377 35.9296 14.377 35.8786C14.377 35.828 14.3817 35.7764 14.3915 35.7254C14.4014 35.6763 14.4165 35.6272 14.4356 35.5792C14.4546 35.5326 14.4784 35.4871 14.5058 35.445C14.5332 35.4019 14.565 35.3623 14.6001 35.3263C14.6352 35.2902 14.6739 35.2576 14.7159 35.2286C14.7569 35.2005 14.8013 35.177 14.8477 35.1575C14.8935 35.138 14.9414 35.1224 14.9902 35.1123C15.2378 35.0614 15.5005 35.145 15.6772 35.3263C15.7123 35.3623 15.7442 35.4019 15.7716 35.445C15.7998 35.4871 15.8227 35.5326 15.8418 35.5792C15.8608 35.6272 15.876 35.6763 15.8858 35.7254C15.8959 35.7764 15.9004 35.828 15.9004 35.8786C15.9004 35.9296 15.8956 35.9812 15.8858 36.0309C15.876 36.081 15.8608 36.1304 15.8418 36.1771C15.8227 36.2247 15.7998 36.2702 15.7716 36.3123C15.7442 36.3553 15.7123 36.395 15.6772 36.431C15.5356 36.5763 15.3389 36.6599 15.1387 36.6599Z" fill="white"/>
<path d="M37.9666 8.84155H18.5859C18.1652 8.84155 17.8242 8.49182 17.8242 8.0603C17.8242 5.39215 19.977 3.22632 22.5969 3.30536C23.7014 1.44653 25.6512 0.3125 27.8015 0.3125C29.5636 0.3125 31.2433 1.10413 32.3954 2.45422C32.7968 2.35291 33.2091 2.30164 33.6275 2.30164C36.4557 2.30164 38.7563 4.66003 38.7563 7.55951C38.7563 7.74994 38.7456 7.94769 38.7239 8.14667C38.6807 8.54248 38.3549 8.84155 37.9666 8.84155ZM19.4417 7.27905H37.2228C37.0823 5.37201 35.5235 3.86414 33.6275 3.86414C33.2005 3.86414 32.7825 3.93982 32.3852 4.08905C32.0657 4.20929 31.7068 4.09729 31.5066 3.8147C30.6467 2.6001 29.2619 1.875 27.8015 1.875C26.0555 1.875 24.486 2.8714 23.7055 4.4751C23.5588 4.77661 23.2393 4.94781 22.9149 4.8996C22.7641 4.87701 22.6123 4.86572 22.4645 4.86572C21.0086 4.86572 19.7827 5.89417 19.4417 7.27905Z" fill="white"/>
<path d="M38.7084 35.683C38.7084 35.6827 38.7081 35.6824 38.7081 35.6821C38.152 33.476 36.8583 31.6003 35.1066 30.3369C35.5761 30.231 35.9713 29.9094 36.1802 29.4455C36.4384 28.8727 36.3509 28.2181 35.9519 27.7377L33.5784 24.8779C34.0363 24.7644 34.4196 24.4446 34.6231 23.9877C34.8799 23.4109 34.7879 22.7548 34.383 22.2754L32.4067 19.9362C32.8598 19.8398 33.2517 19.5407 33.4713 19.1089C33.7409 18.5779 33.7004 17.9434 33.366 17.4527L28.9959 11.0446C28.8537 10.8356 28.6204 10.7111 28.3719 10.7111C28.1232 10.7111 27.8902 10.8356 27.7477 11.0446L23.3776 17.4527C23.0432 17.9434 23.003 18.5779 23.2726 19.1086C23.4919 19.5407 23.884 19.8398 24.3372 19.9362L23.5559 20.8609L17.0256 8.22113C16.8938 7.96448 16.6343 7.80396 16.3514 7.80396C16.0687 7.80396 15.8092 7.96448 15.6774 8.22113L3.29354 32.1927C3.27777 32.2235 3.26408 32.2543 3.25248 32.2861C2.17506 33.1262 1.29433 34.2401 0.718872 35.5557C0.718575 35.5569 0.717979 35.5579 0.717384 35.5591C0.24131 36.6489 0 37.811 0 39.0137C0 39.4452 0.340988 39.7949 0.761719 39.7949H38.1844C38.5724 39.7949 38.8985 39.4955 38.9414 39.1C38.9804 38.7427 39 38.3881 39 38.0463C39 37.2461 38.9018 36.4511 38.7084 35.683ZM36.9202 35.0974H30.6571V30.3748H31.5161C31.5411 30.3839 31.5664 30.3915 31.5929 30.3979C34.0322 30.9943 36.0001 32.7545 36.9202 35.0974ZM27.6099 30.3748H29.1337V35.0974H27.6099V30.3748ZM26.6697 18.8638C26.5456 18.5858 26.2748 18.4073 25.9767 18.4073H24.6565C24.6443 18.4073 24.6339 18.4073 24.6235 18.3868C24.6133 18.3667 24.6187 18.3588 24.6258 18.3484L28.3716 12.8555L32.1175 18.3484C32.1246 18.3588 32.1302 18.3667 32.1198 18.3868C32.1094 18.4073 32.099 18.4073 32.0868 18.4073H31.2772C31.2754 18.4073 31.2733 18.4073 31.2712 18.4073H28.6293C28.2086 18.4073 27.8676 18.757 27.8676 19.1885C27.8676 19.6201 28.2086 19.9698 28.6293 19.9698H30.4191L33.2318 23.2986C33.2413 23.3099 33.2469 23.317 33.2374 23.3386C33.2276 23.3606 33.2184 23.3606 33.2035 23.3606H31.9672C31.6702 23.3606 31.4004 23.5379 31.2757 23.8144C31.1513 24.0909 31.1945 24.4165 31.3873 24.6484L34.7921 28.7506C34.8013 28.7619 34.807 28.7686 34.7972 28.7903C34.7873 28.8123 34.7778 28.8123 34.7635 28.8123H21.98C21.9658 28.8123 21.9562 28.8123 21.9464 28.7903C21.9366 28.7686 21.9423 28.7619 21.9518 28.7506L25.1284 24.9231H28.6219C29.0423 24.9231 29.3836 24.5734 29.3836 24.1418C29.3836 23.7103 29.0423 23.3606 28.6219 23.3606H23.5401C23.5252 23.3606 23.5163 23.3606 23.5062 23.3386C23.4966 23.317 23.5023 23.3099 23.5121 23.2986L26.5524 19.7C26.7476 19.469 26.7935 19.1422 26.6697 18.8638ZM16.3514 10.2625L21.3751 20.0507C20.9011 20.3922 20.3376 20.5756 19.7446 20.5756C18.7895 20.5756 17.9028 20.0885 17.3728 19.2719C17.1842 18.9813 16.903 18.764 16.5808 18.6594C16.4368 18.613 16.2877 18.5892 16.1374 18.5892C15.6411 18.5892 15.1793 18.8446 14.9017 19.2722C14.3718 20.0885 13.4854 20.5759 12.53 20.5759C12.0738 20.5759 11.6257 20.4626 11.2246 20.2509L16.3514 10.2625ZM10.5111 21.6312C11.1306 21.9617 11.8242 22.1381 12.53 22.1381C13.9766 22.1381 15.321 21.4099 16.1371 20.1874C16.9536 21.4099 18.2976 22.1381 19.7446 22.1381C20.6 22.1381 21.4156 21.889 22.1148 21.424L22.4978 22.113L22.3606 22.2754C21.9557 22.7545 21.8634 23.4106 22.1205 23.9874C22.3237 24.4446 22.7073 24.7644 23.1652 24.8779L22.5978 25.5615C21.3112 25.0433 19.9526 24.7803 18.5565 24.7803C16.4603 24.7803 14.4194 25.3845 12.6552 26.5274C11.0913 27.5406 9.80207 28.9349 8.9008 30.582C8.683 30.5643 8.46549 30.5554 8.25066 30.5554C7.35059 30.5554 6.47282 30.7062 5.64594 30.9888L10.5111 21.6312ZM37.4742 38.2324H1.56569C1.6246 37.6938 1.74481 37.1683 1.92513 36.6599H7.8463C8.26673 36.6599 8.60802 36.3101 8.60802 35.8786C8.60802 35.4471 8.26673 35.0974 7.8463 35.0974H2.71243C4.13232 32.9922 6.62517 31.8054 9.22245 32.1906C9.54737 32.2388 9.86604 32.0679 10.0127 31.7664C11.6409 28.421 14.9148 26.3428 18.5565 26.3428C19.5824 26.3428 20.584 26.507 21.5435 26.8317L20.7916 27.7377C20.3926 28.2184 20.3052 28.8727 20.5634 29.4455C20.8214 30.0186 21.3644 30.3748 21.98 30.3748H26.0865V35.0974H17.7207C17.2999 35.0974 16.959 35.4471 16.959 35.8786C16.959 36.3101 17.2999 36.6599 17.7207 36.6599H37.3575C37.4367 37.1155 37.4766 37.5797 37.4766 38.0463C37.4766 38.1079 37.4757 38.1699 37.4742 38.2324Z" fill="white"/>
<path d="M6.96072 11.4084C4.69698 11.4084 2.85547 9.52027 2.85547 7.19971C2.85547 4.87915 4.69698 2.99133 6.96072 2.99133C9.22415 2.99133 11.0657 4.87915 11.0657 7.19971C11.0657 9.52027 9.22415 11.4084 6.96072 11.4084ZM6.96072 4.55383C5.53725 4.55383 4.37891 5.74066 4.37891 7.19971C4.37891 8.65906 5.53725 9.84589 6.96072 9.84589C8.38418 9.84589 9.54223 8.65906 9.54223 7.19971C9.54223 5.74066 8.38418 4.55383 6.96072 4.55383Z" fill="white"/>
<path d="M6.96094 2.76947C6.54021 2.76947 6.19922 2.41974 6.19922 1.98822V1.09375C6.19922 0.662231 6.54021 0.3125 6.96094 0.3125C7.38167 0.3125 7.72266 0.662231 7.72266 1.09375V1.98822C7.72266 2.41974 7.38167 2.76947 6.96094 2.76947Z" fill="white"/>
<path d="M6.96094 14.0872C6.54021 14.0872 6.19922 13.7375 6.19922 13.306V12.4112C6.19922 11.9797 6.54021 11.6299 6.96094 11.6299C7.38167 11.6299 7.72266 11.9797 7.72266 12.4112V13.306C7.72266 13.7375 7.38167 14.0872 6.96094 14.0872Z" fill="white"/>
<path d="M12.9176 7.98096H12.0449C11.6242 7.98096 11.2832 7.63123 11.2832 7.19971C11.2832 6.76819 11.6242 6.41846 12.0449 6.41846H12.9176C13.3384 6.41846 13.6793 6.76819 13.6793 7.19971C13.6793 7.63123 13.3384 7.98096 12.9176 7.98096Z" fill="white"/>
<path d="M1.87661 7.98096H1.00391C0.583176 7.98096 0.242188 7.63123 0.242188 7.19971C0.242188 6.76819 0.583176 6.41846 1.00391 6.41846H1.87661C2.29704 6.41846 2.63833 6.76819 2.63833 7.19971C2.63833 7.63123 2.29704 7.98096 1.87661 7.98096Z" fill="white"/>
<path d="M11.0293 3.8092C10.8341 3.8092 10.6393 3.73291 10.4905 3.58032C10.1932 3.27515 10.1932 2.78046 10.4908 2.47528L11.1894 1.75934C11.4867 1.45416 11.9693 1.45416 12.2665 1.75934C12.5641 2.06451 12.5638 2.5592 12.2662 2.86438L11.5679 3.58032C11.4191 3.73291 11.2239 3.8092 11.0293 3.8092Z" fill="white"/>
<path d="M2.19126 12.8689C1.99636 12.8689 1.80147 12.7926 1.6527 12.64C1.35515 12.3349 1.35545 11.8402 1.653 11.535L2.35164 10.8191C2.64888 10.5139 3.13121 10.5142 3.42875 10.8194C3.7263 11.1245 3.726 11.6192 3.42846 11.9241L2.72982 12.6403C2.58104 12.7926 2.38645 12.8689 2.19126 12.8689Z" fill="white"/>
<path d="M11.7297 12.8689C11.5348 12.8689 11.34 12.7926 11.1912 12.6403L10.4928 11.9241C10.1953 11.6192 10.195 11.1245 10.4925 10.8194C10.7901 10.5142 11.2721 10.5139 11.5697 10.8191L12.2683 11.5353C12.5658 11.8402 12.5661 12.3349 12.2686 12.64C12.1198 12.7926 11.9246 12.8689 11.7297 12.8689Z" fill="white"/>
<path d="M2.8899 3.80917C2.695 3.80917 2.50011 3.73287 2.35164 3.58059L1.653 2.86434C1.35545 2.55947 1.35515 2.06478 1.6527 1.75961C1.94995 1.45412 2.43227 1.45412 2.72982 1.7593L3.42846 2.47555C3.726 2.78042 3.7263 3.27511 3.42875 3.58028C3.27998 3.73287 3.08509 3.80917 2.8899 3.80917Z" fill="white"/>
</g>
<defs>
<clipPath id="clip0">
<rect width="39" height="40" fill="white"/>
</clipPath>
</defs>
</svg>
