<svg width="38" height="38" viewBox="0 0 38 38" fill="none" xmlns="http://www.w3.org/2000/svg">
<path d="M11.0753 24.4017C11.9086 24.4017 12.5841 23.7262 12.5841 22.8929C12.5841 22.0596 11.9086 21.384 11.0753 21.384C10.2419 21.384 9.56641 22.0596 9.56641 22.8929C9.56641 23.7262 10.2419 24.4017 11.0753 24.4017Z" fill="white"/>
<path d="M26.9229 24.4017C27.7562 24.4017 28.4318 23.7262 28.4318 22.8929C28.4318 22.0596 27.7562 21.384 26.9229 21.384C26.0896 21.384 25.4141 22.0596 25.4141 22.8929C25.4141 23.7262 26.0896 24.4017 26.9229 24.4017Z" fill="white"/>
<path d="M38 22.2525C38 20.0669 36.4157 18.2456 34.3355 17.8734V17.2139C34.3355 8.75788 27.456 1.87842 19 1.87842C10.544 1.87842 3.66452 8.75788 3.66452 17.2139V17.8734C1.58425 18.2457 0 20.067 0 22.2525C0 24.457 1.61155 26.2911 3.71822 26.6412C4.01473 30.02 5.5606 32.5158 8.32705 34.0689C10.7873 35.4501 14.2783 36.1215 19 36.1215C23.7217 36.1215 27.2128 35.45 29.673 34.0689C32.4394 32.5158 33.9853 30.0201 34.2818 26.6412C36.3885 26.2912 38 24.457 38 22.2525ZM1.5709 22.2525C1.5709 20.9374 2.45767 19.8262 3.66442 19.4833V25.0217C2.45767 24.679 1.5709 23.5678 1.5709 22.2525ZM32.7646 25.4051C32.7646 28.8547 31.5018 31.2406 28.904 32.6991C26.6848 33.945 23.4452 34.5506 19 34.5506C14.5549 34.5506 11.3152 33.945 9.09611 32.6991C6.49823 31.2406 5.23542 28.8547 5.23542 25.4051V17.2139C5.23542 10.9982 9.3772 5.73253 15.0455 4.02918C19.3638 4.08377 21.6636 7.20102 21.6636 9.45821C21.6636 11.187 20.2572 12.5935 18.5283 12.5935C17.2319 12.5935 16.1771 11.5388 16.1771 10.2424C16.1771 9.29189 16.9504 8.51852 17.901 8.51852C18.3348 8.51852 18.6865 8.16683 18.6865 7.73307C18.6865 7.2993 18.3348 6.94762 17.901 6.94762C16.0843 6.94762 14.6062 8.42564 14.6062 10.2424C14.6062 12.405 16.3656 14.1644 18.5283 14.1644C21.1233 14.1644 23.2345 12.0532 23.2345 9.45821C23.2345 7.82791 22.4154 6.0739 21.0434 4.76613C20.4946 4.24302 19.8701 3.80326 19.1888 3.45177C26.6918 3.55329 32.7646 9.68727 32.7646 17.2139V25.4051ZM34.3355 25.0218V19.4834C35.5423 19.8263 36.4291 20.9375 36.4291 22.2526C36.4291 23.5677 35.5422 24.679 34.3355 25.0218Z" fill="white"/>
<path d="M22.0373 25.0562C20.3624 26.7313 17.6368 26.7313 15.962 25.0562C15.6551 24.7495 15.1579 24.7495 14.8511 25.0562C14.5444 25.3629 14.5444 25.8603 14.8511 26.167C15.9948 27.3108 17.4973 27.8827 18.9997 27.8827C20.5021 27.8827 22.0044 27.3108 23.1482 26.167C23.455 25.8603 23.455 25.3629 23.1482 25.0562C22.8413 24.7495 22.3441 24.7495 22.0373 25.0562Z" fill="white"/>
</svg>
