<svg width="36" height="36" viewBox="0 0 36 36" fill="none" xmlns="http://www.w3.org/2000/svg">
<path d="M36 17.5364C36 27.2216 28.0884 35.0728 18.3272 35.0728C15.2284 35.0728 12.3172 34.2808 9.7844 32.8908L0 36L3.19 26.5912C1.5808 23.9488 0.654 20.8496 0.654 17.5364C0.654 7.8512 8.5664 0 18.3272 0C28.0892 0 36 7.8512 36 17.5364ZM18.3272 2.7928C10.1336 2.7928 3.4688 9.4068 3.4688 17.5364C3.4688 20.7624 4.5204 23.75 6.2992 26.1804L4.4428 31.656L10.1528 29.8412C12.4988 31.3816 15.3092 32.28 18.3276 32.28C26.52 32.28 33.186 25.6668 33.186 17.5372C33.186 9.4076 26.5204 2.7928 18.3272 2.7928ZM27.2516 21.5752C27.1424 21.3964 26.854 21.2884 26.4212 21.0736C25.9876 20.8588 23.8572 19.8184 23.4612 19.6756C23.064 19.5324 22.7744 19.4604 22.486 19.8904C22.1976 20.3208 21.3672 21.2884 21.114 21.5752C20.8612 21.8628 20.6088 21.8988 20.1752 21.6836C19.7424 21.4688 18.3468 21.0144 16.692 19.5504C15.4044 18.4112 14.5348 17.0048 14.282 16.574C14.0296 16.144 14.2556 15.9116 14.472 15.6976C14.6672 15.5048 14.9056 15.1956 15.122 14.9448C15.3392 14.6936 15.4112 14.5148 15.5548 14.2276C15.7 13.9408 15.6276 13.69 15.5188 13.4744C15.4108 13.2596 14.5436 11.1444 14.1828 10.2836C13.822 9.4236 13.4616 9.5668 13.2084 9.5668C12.956 9.5668 12.6668 9.5308 12.378 9.5308C12.0892 9.5308 11.6196 9.6384 11.2224 10.0684C10.8256 10.4988 9.7068 11.5388 9.7068 13.6536C9.7068 15.7688 11.2584 17.8124 11.4756 18.0988C11.692 18.3852 14.4716 22.8668 18.8756 24.588C23.28 26.3084 23.28 25.7344 24.0744 25.6624C24.868 25.5908 26.6368 24.6228 26.9992 23.6196C27.3592 22.6148 27.3592 21.7544 27.2516 21.5752Z" fill="#6FE7A6"/>
</svg>
